<svg xmlns="http://www.w3.org/2000/svg" width="73.716" height="22.074"><g data-name="nTask Logo"><path data-name="Path 3152" d="M18.173.924a6.028 6.028 0 0 0-.916.013c-.406.06-.833.141-1.286.236a.052.052 0 0 0-.053.054 4.451 4.451 0 0 0-.8.59 6.138 6.138 0 0 0-1.399 1.718 1.992 1.992 0 0 0 .161 2.037c.429.8.8 1.554 1.233 2.359.322.643.643 1.287.912 1.93a7 7 0 0 0 .429-.911c.214-.536.483-1.072.75-1.608a5.477 5.477 0 0 1 .429-.8c.053-.107.161-.214.214-.322a2.7 2.7 0 0 1 1.823-1.233 2.026 2.026 0 0 1 .8 0 .639.639 0 0 1 .487.3V3.229C20.799 1.246 18.709.978 18.173.924Z" fill="#009d6e"/><path data-name="Path 3153" d="M4.699 21.916a15.132 15.132 0 0 0 2.11.022c.137 0 .292-.019.445-.034a22.491 22.491 0 0 1-2.555.012Z" fill="#80af45"/><path data-name="Path 3154" d="M7.505 21.885h-.027Z" fill="#80af45"/><path data-name="Path 3155" d="M7.479 21.887c-.071 0-.148.009-.226.018Z" fill="#80af45"/><path data-name="Path 3156" d="M4.667 21.915h.031-.032Z" fill="#80af45"/><path data-name="Path 3157" d="M25.464 1.942a3.33 3.33 0 0 0-1.93-1.5A10.135 10.135 0 0 0 18.977.12a8.309 8.309 0 0 0-3 1.018 8.948 8.948 0 0 1 1.282-.2 6.028 6.028 0 0 1 .916-.013c.536.054 2.627.322 2.788 2.305v13.294c0 .429-.214.59-.643.59a2.536 2.536 0 0 1-2.466-1.448 204.427 204.427 0 0 0-2.361-4.985l-.965-1.93c-.483-1.018-1.018-1.984-1.554-3a2.487 2.487 0 0 1-.268-.536 9.63 9.63 0 0 0-1.876-2.68A7.816 7.816 0 0 0 6.969.871a10.025 10.025 0 0 0-4.557.322c-.107.053-.214.053-.268.107C.536 2 0 3.336 0 5.052v12.437a5.887 5.887 0 0 0 .107 1.394A2.351 2.351 0 0 0 .483 19.9a3.236 3.236 0 0 0 .375.536l.053.054.107.107.161.161a6.52 6.52 0 0 0 3.487 1.154h.032a22.491 22.491 0 0 0 2.555-.012c.077-.008.155-.016.226-.018H7.5h-.477c-.054 0-.107-.054-.214-.054-.054 0-.107-.053-.215-.053H6.54c-.054 0-.107-.054-.161-.054h-.053c-.161-.107-.322-.161-.483-.268a3 3 0 0 1-.911-2.144V6.231c.053-.268.214-.375.536-.429a2.036 2.036 0 0 1 .8 0 2.7 2.7 0 0 1 1.827 1.233c.053.107.161.215.214.322a5.489 5.489 0 0 1 .429.8c.268.536.483 1.072.751 1.608.161.375.375.751.536 1.072.483.965.911 1.93 1.394 2.841.429.912.911 1.876 1.34 2.788.483.965.965 1.93 1.394 2.9.965 1.983 2.788 2.573 4.879 2.68 3 .161 4.664-.375 5.629-1.179l.161-.161.107-.107.053-.054a3.1 3.1 0 0 0 .8-1.984L26 4.248a4.447 4.447 0 0 0-.536-2.306Z" fill="#00cc90"/><path data-name="Path 3158" d="M12.325 17.845a2.818 2.818 0 0 0-.214-.911 5.185 5.185 0 0 1-.268-.59c-.268-.536-.483-1.072-.751-1.555-.375-.8-.751-1.554-1.126-2.359-.107 0-.161.053-.161.107-.107.214-.268.429-.375.643a13.529 13.529 0 0 1-.7 1.179c-.75 1.34-1.608 3.056-3.431 2.573a.37.37 0 0 1-.268-.214c0-.054-.053-.161-.053-.214l-.049-.655v3.462a3 3 0 0 0 .911 2.144c.161.107.322.161.483.268h.053c.054 0 .107.054.161.054h.053c.107 0 .161.053.215.053.107 0 .161.054.214.054h.477c.206-.019.384-.041.544-.065a5.2 5.2 0 0 0 3.9-2.735v-.007c.021-.041.04-.085.06-.128l.048-.1c.028-.061.053-.124.079-.188l.03-.072a2.769 2.769 0 0 0 .159-.584Z" fill="#009d6e"/><g fill="#fff"><path data-name="Path 3159" d="M38.981 6.023v12.872h-2.989V6.023h-3.45v-2.6h9.888v2.6Z"/><path data-name="Path 3160" d="M49.581 8.937h2.806v9.957h-2.806v-1.288a3.571 3.571 0 0 1-3.058 1.61 5.053 5.053 0 0 1-5.082-5.312 4.979 4.979 0 0 1 4.944-5.289 3.606 3.606 0 0 1 3.2 1.61Zm-5.243 4.967a2.76 2.76 0 1 0 2.759-2.805 2.727 2.727 0 0 0-2.758 2.805Z"/><path data-name="Path 3161" d="M59.899 11.305a2.329 2.329 0 0 0-1.633-.667c-.667 0-1.081.322-1.081.8 0 .253.115.644.9.9l.667.207a5.1 5.1 0 0 1 2.529 1.426 2.886 2.886 0 0 1 .506 1.655 3.31 3.31 0 0 1-1.1 2.53 4.183 4.183 0 0 1-2.99 1.058 5.031 5.031 0 0 1-3.863-1.656l1.472-1.7a3.086 3.086 0 0 0 2.207 1.15c.782 0 1.38-.391 1.38-1.081a1.111 1.111 0 0 0-.874-1.012l-.644-.23a5.371 5.371 0 0 1-2.138-1.2 2.671 2.671 0 0 1-.759-1.909 2.958 2.958 0 0 1 1.035-2.253 4.109 4.109 0 0 1 2.6-.713 4.967 4.967 0 0 1 3.174 1.058Z"/><path data-name="Path 3162" d="M65.99 2v10.522l3.725-3.662h3.634l-4.668 4.4 5.036 5.632h-3.725l-3.7-4.287-.3.278v4.01h-2.806V2Z"/></g></g></svg>